<svg width="107" height="230" viewBox="0 0 107 230" fill="none" xmlns="http://www.w3.org/2000/svg">
<circle cx="6.7376" cy="99.2156" r="6.66261" transform="rotate(-89.3514 6.7376 99.2156)" fill="white"/>
<circle cx="7.08682" cy="68.3895" r="6.66285" transform="rotate(-89.3514 7.08682 68.3895)" fill="white"/>
<circle cx="7.43578" cy="37.5637" r="6.66285" transform="rotate(-89.3514 7.43578 37.5637)" fill="white"/>
<circle cx="7.78472" cy="6.73785" r="6.66285" transform="rotate(-89.3514 7.78472 6.73785)" fill="white"/>
<circle cx="37.5637" cy="99.5643" r="6.66285" transform="rotate(-89.3514 37.5637 99.5643)" fill="white"/>
<circle cx="37.9126" cy="68.7385" r="6.66285" transform="rotate(-89.3514 37.9126 68.7385)" fill="white"/>
<circle cx="38.2615" cy="37.9126" r="6.66285" transform="rotate(-89.3514 38.2615 37.9126)" fill="white"/>
<circle cx="38.6105" cy="7.08685" r="6.66285" transform="rotate(-89.3514 38.6105 7.08685)" fill="white"/>
<circle cx="68.3895" cy="99.9133" r="6.66285" transform="rotate(-89.3514 68.3895 99.9133)" fill="white"/>
<circle cx="68.7384" cy="69.0874" r="6.66285" transform="rotate(-89.3514 68.7384 69.0874)" fill="white"/>
<circle cx="69.0874" cy="38.2616" r="6.66285" transform="rotate(-89.3514 69.0874 38.2616)" fill="white"/>
<circle cx="69.4363" cy="7.43576" r="6.66285" transform="rotate(-89.3514 69.4363 7.43576)" fill="white"/>
<circle cx="99.2153" cy="100.262" r="6.66285" transform="rotate(-89.3514 99.2153 100.262)" fill="white"/>
<circle cx="99.5643" cy="69.4364" r="6.66285" transform="rotate(-89.3514 99.5643 69.4364)" fill="white"/>
<circle cx="99.9132" cy="38.6106" r="6.66285" transform="rotate(-89.3514 99.9132 38.6106)" fill="white"/>
<circle cx="100.262" cy="7.78473" r="6.66285" transform="rotate(-89.3514 100.262 7.78473)" fill="white"/>
<circle cx="6.7376" cy="221.428" r="6.66261" transform="rotate(-89.3514 6.7376 221.428)" fill="white"/>
<circle cx="7.08682" cy="190.602" r="6.66285" transform="rotate(-89.3514 7.08682 190.602)" fill="white"/>
<circle cx="7.43578" cy="159.776" r="6.66285" transform="rotate(-89.3514 7.43578 159.776)" fill="white"/>
<circle cx="7.78472" cy="128.95" r="6.66285" transform="rotate(-89.3514 7.78472 128.95)" fill="white"/>
<circle cx="37.5637" cy="221.777" r="6.66285" transform="rotate(-89.3514 37.5637 221.777)" fill="white"/>
<circle cx="37.9126" cy="190.951" r="6.66285" transform="rotate(-89.3514 37.9126 190.951)" fill="white"/>
<circle cx="38.2615" cy="160.125" r="6.66285" transform="rotate(-89.3514 38.2615 160.125)" fill="white"/>
<circle cx="38.6105" cy="129.299" r="6.66285" transform="rotate(-89.3514 38.6105 129.299)" fill="white"/>
<circle cx="68.3895" cy="222.126" r="6.66285" transform="rotate(-89.3514 68.3895 222.126)" fill="white"/>
<circle cx="68.7384" cy="191.3" r="6.66285" transform="rotate(-89.3514 68.7384 191.3)" fill="white"/>
<circle cx="69.0874" cy="160.474" r="6.66285" transform="rotate(-89.3514 69.0874 160.474)" fill="white"/>
<circle cx="69.4363" cy="129.648" r="6.66285" transform="rotate(-89.3514 69.4363 129.648)" fill="white"/>
<circle cx="99.2153" cy="222.475" r="6.66285" transform="rotate(-89.3514 99.2153 222.475)" fill="white"/>
<circle cx="99.5643" cy="191.649" r="6.66285" transform="rotate(-89.3514 99.5643 191.649)" fill="white"/>
<circle cx="99.9132" cy="160.823" r="6.66285" transform="rotate(-89.3514 99.9132 160.823)" fill="white"/>
<circle cx="100.262" cy="129.997" r="6.66285" transform="rotate(-89.3514 100.262 129.997)" fill="white"/>
</svg>
