    <svg xmlns="http://www.w3.org/2000/svg" viewBox="0 0 1440 320">
    <path fill="#542CE2" fillOpacity="1" d="M0,96L34.3,117.3C68.6,139,137,181,206,202.7C274.3,224,343,224,411,213.3C480,203,549,181,617,176C685.7,171,754,181,823,208C891.4,235,960,277,1029,288C1097.1,299,1166,277,1234,245.3C1302.9,213,1371,171,1406,149.3L1440,128L1440,320L1405.7,320C1371.4,320,1303,320,1234,320C1165.7,320,1097,320,1029,320C960,320,891,320,823,320C754.3,320,686,320,617,320C548.6,320,480,320,411,320C342.9,320,274,320,206,320C137.1,320,69,320,34,320L0,320Z"></path>
    </svg>